<svg width="64" height="64" viewBox="0 0 64 64" xmlns="http://www.w3.org/2000/svg">
  <defs>
    <style>
      .primary-color { fill: #0B1F3B; }
      .accent-color { fill: #2AA198; }
    </style>
  </defs>

  <!-- Main Gear (larger, primary color) -->
  <g class="primary-color">
    <path d="M32 12c-1.1 0-2 .9-2 2v2.1c-1.6.3-3.1.8-4.5 1.5l-1.5-1.5c-.8-.8-2-.8-2.8 0s-.8 2 0 2.8l1.5 1.5c-.7 1.4-1.2 2.9-1.5 4.5H19c-1.1 0-2 .9-2 2s.9 2 2 2h2.1c.3 1.6.8 3.1 1.5 4.5l-1.5 1.5c-.8.8-.8 2 0 2.8s2 .8 2.8 0l1.5-1.5c1.4.7 2.9 1.2 4.5 1.5V45c0 1.1.9 2 2 2s2-.9 2-2v-2.1c1.6-.3 3.1-.8 4.5-1.5l1.5 1.5c.8.8 2 .8 2.8 0s.8-2 0-2.8l-1.5-1.5c.7-1.4 1.2-2.9 1.5-4.5H45c1.1 0 2-.9 2-2s-.9-2-2-2h-2.1c-.3-1.6-.8-3.1-1.5-4.5l1.5-1.5c.8-.8.8-2 0-2.8s-2-.8-2.8 0l-1.5 1.5c-1.4-.7-2.9-1.2-4.5-1.5V14c0-1.1-.9-2-2-2zm0 10c5.5 0 10 4.5 10 10s-4.5 10-10 10-10-4.5-10-10 4.5-10 10-10z"/>
    <circle cx="32" cy="32" r="6"/>
  </g>

  <!-- Smaller Gear (top right, accent color) -->
  <g class="accent-color">
    <path d="M48 8c-.6 0-1 .4-1 1v1.1c-.8.2-1.6.5-2.3.8l-.8-.8c-.4-.4-1-.4-1.4 0s-.4 1 0 1.4l.8.8c-.3.7-.6 1.5-.8 2.3H41c-.6 0-1 .4-1 1s.4 1 1 1h1.1c.2.8.5 1.6.8 2.3l-.8.8c-.4.4-.4 1 0 1.4s1 .4 1.4 0l.8-.8c.7.3 1.5.6 2.3.8V21c0 .6.4 1 1 1s1-.4 1-1v-1.1c.8-.2 1.6-.5 2.3-.8l.8.8c.4.4 1 .4 1.4 0s.4-1 0-1.4l-.8-.8c.3-.7.6-1.5.8-2.3H55c.6 0 1-.4 1-1s-.4-1-1-1h-1.1c-.2-.8-.5-1.6-.8-2.3l.8-.8c.4-.4.4-1 0-1.4s-1-.4-1.4 0l-.8.8c-.7-.3-1.5-.6-2.3-.8V9c0-.6-.4-1-1-1zm0 5c2.8 0 5 2.2 5 5s-2.2 5-5 5-5-2.2-5-5 2.2-5 5-5z"/>
    <circle cx="48" cy="18" r="2.5"/>
  </g>

  <!-- Automation Arrow/Lightning Element (accent color) -->
  <g class="accent-color">
    <path d="M16 48l6-4-2-4 6 2 4-6 2 8-8 2-4 6-4-4z" opacity="0.8"/>
  </g>

  <!-- Workflow Connection Lines (subtle, primary color) -->
  <g class="primary-color" opacity="0.3">
    <line x1="42" y1="24" x2="46" y2="20" stroke="#0B1F3B" stroke-width="2" stroke-linecap="round"/>
    <line x1="22" y1="42" x2="18" y2="46" stroke="#0B1F3B" stroke-width="2" stroke-linecap="round"/>
  </g>
</svg>