<svg width="64" height="64" viewBox="0 0 64 64" xmlns="http://www.w3.org/2000/svg">
  <!-- Shield background -->
  <path d="M32 4L18 10C18 10 18 24 18 32C18 45 32 58 32 58C32 58 46 45 46 32C46 24 46 10 46 10L32 4Z"
        fill="#0B1F3B"
        stroke="#2AA198"
        stroke-width="1.5"/>

  <!-- Human figure silhouette -->
  <g fill="#F5F7FA">
    <!-- Head -->
    <circle cx="28" cy="20" r="3.5"/>
    <!-- Body -->
    <path d="M28 24.5C25.5 24.5 23.5 26.5 23.5 29V35H32.5V29C32.5 26.5 30.5 24.5 28 24.5Z"/>
  </g>

  <!-- Checkmark -->
  <g stroke="#2AA198" stroke-width="2.5" fill="none" stroke-linecap="round" stroke-linejoin="round">
    <path d="M35 26L38 29L43 21"/>
  </g>

  <!-- Verification badge circle -->
  <circle cx="39" cy="25" r="8" fill="#2AA198" stroke="#0B1F3B" stroke-width="1.5"/>
  <circle cx="39" cy="25" r="6" fill="none" stroke="#F5F7FA" stroke-width="1"/>

  <!-- Checkmark in badge -->
  <g stroke="#F5F7FA" stroke-width="2" fill="none" stroke-linecap="round" stroke-linejoin="round">
    <path d="M36 25L38 27L42 22"/>
  </g>
</svg>