<svg width="64" height="64" viewBox="0 0 64 64" xmlns="http://www.w3.org/2000/svg">
  <defs>
    <style>
      .primary { fill: #0B1F3B; }
      .accent { fill: #2AA198; }
      .connection { stroke: #2AA198; stroke-width: 2; fill: none; }
    </style>
  </defs>

  <!-- Central hub/core -->
  <circle cx="32" cy="32" r="8" class="primary"/>

  <!-- Connected nodes around the hub -->
  <circle cx="16" cy="16" r="5" class="accent"/>
  <circle cx="48" cy="16" r="5" class="accent"/>
  <circle cx="16" cy="48" r="5" class="accent"/>
  <circle cx="48" cy="48" r="5" class="accent"/>

  <!-- Connection lines -->
  <line x1="24" y1="24" x2="20.5" y2="20.5" class="connection"/>
  <line x1="40" y1="24" x2="43.5" y2="20.5" class="connection"/>
  <line x1="24" y1="40" x2="20.5" y2="43.5" class="connection"/>
  <line x1="40" y1="40" x2="43.5" y2="43.5" class="connection"/>

  <!-- Data flow arrows -->
  <path d="M28 18 L32 14 L36 18" class="connection" stroke-linecap="round" stroke-linejoin="round"/>
  <path d="M46 28 L50 32 L46 36" class="connection" stroke-linecap="round" stroke-linejoin="round"/>
  <path d="M36 46 L32 50 L28 46" class="connection" stroke-linecap="round" stroke-linejoin="round"/>
  <path d="M18 36 L14 32 L18 28" class="connection" stroke-linecap="round" stroke-linejoin="round"/>

  <!-- Inner gear teeth for technology aspect -->
  <path d="M32 24 L34 26 L32 28 L30 26 Z" class="accent"/>
  <path d="M40 32 L38 30 L40 32 L38 34 Z" class="accent"/>
  <path d="M32 40 L30 38 L32 40 L34 38 Z" class="accent"/>
  <path d="M24 32 L26 34 L24 32 L26 30 Z" class="accent"/>
</svg>