<?xml version="1.0" encoding="UTF-8"?>
<svg width="64" height="64" viewBox="0 0 64 64" fill="none" xmlns="http://www.w3.org/2000/svg">
  <!-- Background circle -->
  <circle cx="32" cy="32" r="30" fill="#F5F7FA" stroke="#0B1F3B" stroke-width="1.5"/>

  <!-- Brain outline -->
  <path d="M20 28C20 22 24 18 30 18C33 18 35.5 19.5 37 21.5C38.5 19.5 41 18 44 18C50 18 54 22 54 28C54 30 53.5 31.8 52.5 33.2C53.2 34.5 53.5 36 53.5 37.5C53.5 42 50 45.5 45.5 45.5C44.2 45.5 43 45.1 42 44.4C40.8 45.4 39.2 46 37.5 46C35.8 46 34.2 45.4 33 44.4C32 45.1 30.8 45.5 29.5 45.5C25 45.5 21.5 42 21.5 37.5C21.5 36 21.8 34.5 22.5 33.2C21.5 31.8 21 30 21 28Z" fill="none" stroke="#0B1F3B" stroke-width="2" stroke-linecap="round"/>

  <!-- Brain center division -->
  <path d="M32 20C32 25 32 35 32 44" stroke="#0B1F3B" stroke-width="1.5" stroke-linecap="round"/>

  <!-- Circuit pattern lines in brain -->
  <path d="M26 25L28 27L30 25" fill="none" stroke="#2AA198" stroke-width="1.5" stroke-linecap="round" stroke-linejoin="round"/>
  <path d="M34 25L36 27L38 25" fill="none" stroke="#2AA198" stroke-width="1.5" stroke-linecap="round" stroke-linejoin="round"/>
  <path d="M24 32L26 34L28 32" fill="none" stroke="#2AA198" stroke-width="1.5" stroke-linecap="round" stroke-linejoin="round"/>
  <path d="M36 32L38 34L40 32" fill="none" stroke="#2AA198" stroke-width="1.5" stroke-linecap="round" stroke-linejoin="round"/>
  <path d="M27 38L29 40L31 38" fill="none" stroke="#2AA198" stroke-width="1.5" stroke-linecap="round" stroke-linejoin="round"/>
  <path d="M33 38L35 40L37 38" fill="none" stroke="#2AA198" stroke-width="1.5" stroke-linecap="round" stroke-linejoin="round"/>

  <!-- Circuit nodes -->
  <circle cx="27" cy="26" r="1.5" fill="#2AA198"/>
  <circle cx="37" cy="26" r="1.5" fill="#2AA198"/>
  <circle cx="25" cy="33" r="1.5" fill="#2AA198"/>
  <circle cx="39" cy="33" r="1.5" fill="#2AA198"/>
  <circle cx="29" cy="39" r="1.5" fill="#2AA198"/>
  <circle cx="35" cy="39" r="1.5" fill="#2AA198"/>

  <!-- Analytics chart elements below brain -->
  <path d="M16 52L20 48L24 50L28 46L32 48L36 44L40 46L44 42L48 44" fill="none" stroke="#0B1F3B" stroke-width="2" stroke-linecap="round" stroke-linejoin="round"/>

  <!-- Data points on chart -->
  <circle cx="20" cy="48" r="2" fill="#2AA198"/>
  <circle cx="28" cy="46" r="2" fill="#2AA198"/>
  <circle cx="36" cy="44" r="2" fill="#2AA198"/>
  <circle cx="44" cy="42" r="2" fill="#2AA198"/>

  <!-- Insight spark/lightbulb element -->
  <path d="M48 22L50 20L52 22L50 24Z" fill="#2AA198"/>
  <circle cx="50" cy="22" r="1" fill="#F5F7FA"/>
</svg>