<svg width="64" height="64" viewBox="0 0 64 64" xmlns="http://www.w3.org/2000/svg">
  <!-- Background circle -->
  <circle cx="32" cy="32" r="30" fill="#F5F7FA" stroke="#0B1F3B" stroke-width="2"/>

  <!-- Main padlock body -->
  <rect x="24" y="32" width="16" height="18" rx="2" fill="#0B1F3B"/>

  <!-- Padlock shackle -->
  <path d="M28 32 V26 C28 22.686 30.686 20 34 20 C37.314 20 40 22.686 40 26 V28"
        stroke="#0B1F3B" stroke-width="2.5" fill="none" stroke-linecap="round"/>

  <!-- Lock keyhole -->
  <circle cx="32" cy="38" r="2" fill="#2AA198"/>
  <rect x="31" y="40" width="2" height="4" fill="#2AA198"/>

  <!-- Data stream lines (left side) -->
  <g opacity="0.8">
    <line x1="12" y1="25" x2="20" y2="25" stroke="#2AA198" stroke-width="1.5" stroke-linecap="round"/>
    <line x1="10" y1="29" x2="18" y2="29" stroke="#2AA198" stroke-width="1.5" stroke-linecap="round"/>
    <line x1="14" y1="33" x2="20" y2="33" stroke="#2AA198" stroke-width="1.5" stroke-linecap="round"/>
    <line x1="11" y1="37" x2="19" y2="37" stroke="#2AA198" stroke-width="1.5" stroke-linecap="round"/>
    <line x1="13" y1="41" x2="20" y2="41" stroke="#2AA198" stroke-width="1.5" stroke-linecap="round"/>
  </g>

  <!-- Data stream lines (right side) -->
  <g opacity="0.8">
    <line x1="44" y1="25" x2="52" y2="25" stroke="#2AA198" stroke-width="1.5" stroke-linecap="round"/>
    <line x1="46" y1="29" x2="54" y2="29" stroke="#2AA198" stroke-width="1.5" stroke-linecap="round"/>
    <line x1="44" y1="33" x2="50" y2="33" stroke="#2AA198" stroke-width="1.5" stroke-linecap="round"/>
    <line x1="45" y1="37" x2="53" y2="37" stroke="#2AA198" stroke-width="1.5" stroke-linecap="round"/>
    <line x1="44" y1="41" x2="51" y2="41" stroke="#2AA198" stroke-width="1.5" stroke-linecap="round"/>
  </g>

  <!-- Small secure data dots -->
  <circle cx="16" cy="27" r="1" fill="#0B1F3B" opacity="0.6"/>
  <circle cx="22" cy="31" r="1" fill="#0B1F3B" opacity="0.6"/>
  <circle cx="18" cy="35" r="1" fill="#0B1F3B" opacity="0.6"/>
  <circle cx="21" cy="39" r="1" fill="#0B1F3B" opacity="0.6"/>

  <circle cx="48" cy="27" r="1" fill="#0B1F3B" opacity="0.6"/>
  <circle cx="42" cy="31" r="1" fill="#0B1F3B" opacity="0.6"/>
  <circle cx="46" cy="35" r="1" fill="#0B1F3B" opacity="0.6"/>
  <circle cx="43" cy="39" r="1" fill="#0B1F3B" opacity="0.6"/>
</svg>