<svg width="64" height="64" viewBox="0 0 64 64" xmlns="http://www.w3.org/2000/svg">
  <!-- Background circle -->
  <circle cx="32" cy="32" r="30" fill="#F5F7FA" stroke="#0B1F3B" stroke-width="2"/>

  <!-- Left hand/arm - geometric representation -->
  <g>
    <!-- Left arm -->
    <rect x="8" y="38" width="18" height="6" rx="3" fill="#0B1F3B"/>
    <!-- Left hand -->
    <rect x="22" y="28" width="8" height="12" rx="4" fill="#0B1F3B"/>
    <!-- Left thumb -->
    <rect x="28" y="32" width="4" height="6" rx="2" fill="#0B1F3B"/>
  </g>

  <!-- Right hand/arm - geometric representation -->
  <g>
    <!-- Right arm -->
    <rect x="38" y="38" width="18" height="6" rx="3" fill="#2AA198"/>
    <!-- Right hand -->
    <rect x="34" y="28" width="8" height="12" rx="4" fill="#2AA198"/>
    <!-- Right thumb -->
    <rect x="32" y="32" width="4" height="6" rx="2" fill="#2AA198"/>
  </g>

  <!-- Connection/handshake point -->
  <circle cx="32" cy="34" r="4" fill="#0B1F3B"/>
  <circle cx="32" cy="34" r="2" fill="#2AA198"/>

  <!-- Partnership indicators - connection lines -->
  <g opacity="0.6">
    <!-- Left connection lines -->
    <line x1="12" y1="20" x2="20" y2="26" stroke="#2AA198" stroke-width="2" stroke-linecap="round"/>
    <line x1="16" y1="18" x2="24" y2="24" stroke="#2AA198" stroke-width="2" stroke-linecap="round"/>

    <!-- Right connection lines -->
    <line x1="52" y1="20" x2="44" y2="26" stroke="#0B1F3B" stroke-width="2" stroke-linecap="round"/>
    <line x1="48" y1="18" x2="40" y2="24" stroke="#0B1F3B" stroke-width="2" stroke-linecap="round"/>
  </g>

  <!-- Trust/success indicators - small dots -->
  <circle cx="20" cy="22" r="1.5" fill="#2AA198" opacity="0.8"/>
  <circle cx="24" cy="20" r="1.5" fill="#2AA198" opacity="0.8"/>
  <circle cx="44" cy="22" r="1.5" fill="#0B1F3B" opacity="0.8"/>
  <circle cx="40" cy="20" r="1.5" fill="#0B1F3B" opacity="0.8"/>
</svg>