<svg width="64" height="64" viewBox="0 0 64 64" fill="none" xmlns="http://www.w3.org/2000/svg">
  <!-- Background circle -->
  <circle cx="32" cy="32" r="30" fill="#0B1F3B" opacity="0.1"/>

  <!-- Handshake illustration -->
  <g transform="translate(12, 18)">
    <!-- Left hand/arm -->
    <path d="M2 20 C2 18, 3 16, 5 15 L12 12 C14 11, 16 11, 18 12 L22 14"
          stroke="#0B1F3B" stroke-width="2.5" stroke-linecap="round" stroke-linejoin="round" fill="none"/>

    <!-- Right hand/arm -->
    <path d="M38 20 C38 18, 37 16, 35 15 L28 12 C26 11, 24 11, 22 12 L18 14"
          stroke="#2AA198" stroke-width="2.5" stroke-linecap="round" stroke-linejoin="round" fill="none"/>

    <!-- Handshake connection point -->
    <circle cx="20" cy="14" r="3" fill="#0B1F3B"/>
    <circle cx="20" cy="14" r="1.5" fill="#2AA198"/>

    <!-- Left fingers -->
    <path d="M16 16 C15 17, 15 18, 16 19"
          stroke="#0B1F3B" stroke-width="2" stroke-linecap="round" fill="none"/>
    <path d="M18 17 C17 18, 17 19, 18 20"
          stroke="#0B1F3B" stroke-width="2" stroke-linecap="round" fill="none"/>

    <!-- Right fingers -->
    <path d="M24 16 C25 17, 25 18, 24 19"
          stroke="#2AA198" stroke-width="2" stroke-linecap="round" fill="none"/>
    <path d="M22 17 C23 18, 23 19, 22 20"
          stroke="#2AA198" stroke-width="2" stroke-linecap="round" fill="none"/>

    <!-- Trust indicator - small heart shape at connection -->
    <path d="M18.5 11 C18 10.5, 17 10.5, 16.5 11 C16 10.5, 15 10.5, 14.5 11 C14 11.5, 14 12.5, 15 13.5 L16.5 15 L18 13.5 C19 12.5, 19 11.5, 18.5 11 Z"
          fill="#2AA198" opacity="0.8"/>
  </g>

  <!-- Connection lines suggesting partnership -->
  <g opacity="0.3">
    <line x1="8" y1="32" x2="20" y2="32" stroke="#2AA198" stroke-width="1" stroke-dasharray="2,2"/>
    <line x1="44" y1="32" x2="56" y2="32" stroke="#2AA198" stroke-width="1" stroke-dasharray="2,2"/>
  </g>
</svg>